<?xml version="1.0" encoding="utf-8"?>
<!-- Generator: Adobe Illustrator 19.2.0, SVG Export Plug-In . SVG Version: 6.00 Build 0)  -->
<svg version="1.1" id="Capa_1" xmlns="http://www.w3.org/2000/svg" xmlns:xlink="http://www.w3.org/1999/xlink" x="0px" y="0px"
	 viewBox="0 0 83.8 92" style="enable-background:new 0 0 83.8 92;" xml:space="preserve">
<style type="text/css">
	.st0{fill:#FFFFFE;}
</style>
<path class="st0" d="M83.8,41C83.8,18.4,65,0,41.9,0S0,18.4,0,41s18.8,41,41.9,41v8.5c0,1.2,1.4,1.8,2.3,1.1l24.6-19.2l0,0
	C78,64.9,83.8,53.6,83.8,41z M45.2,22.8l-5.9,12.6H31l5.9-12.6H45.2z M10.1,55.2l15.1-32.4h8.4L18.5,55.2H10.1z M41.8,55.2h-8.4v0
	h-2.8l-4.4-9.5l4.2-9l5.8,12.5l11.5-24.7l4.2,9L41.8,55.2z M65.3,55.2L50.2,22.8h8.4l15.1,32.4H65.3z"/>
</svg>
